# xmcd CD database file
#
# Track frame offsets:
#	150
#	17627
#	40120
#	58032
#	74927
#	94905
#	117362
#	138112
#	156875
#	179622
#	199800
#	221267
#	245545
#	274085
#
# Disc length: 3933 seconds
#
# Revision: 9
# Processed by: cddbd v1.5PL3 Copyright (c) Steve Scherf et al.
# Submitted via: CDex 1.50
#
DISCID=d10f5b0e
DTITLE=THE CHECKERS - THE BEST
DYEAR=1991
DGENRE=JPop
TTITLE0=NANA
TTITLE1=I Love you, SAYONARA
TTITLE2=WANDERER
TTITLE3=Blue Rain
TTITLE4=ONE NIGHT GIGOLO
TTITLE5=Jim and Jane の伝説
TTITLE6=素直に I'm Sorry
TTITLE7=Room
TTITLE8=Cherie
TTITLE9=Friends and Dream
TTITLE10=運命
TTITLE11=夜明けのブレス
TTITLE12=さよならをもう一度
TTITLE13=Love '91
EXTD=YEAR: 1991
EXTT0=
EXTT1=
EXTT2=
EXTT3=
EXTT4=
EXTT5=
EXTT6=
EXTT7=
EXTT8=
EXTT9=
EXTT10=
EXTT11=
EXTT12=
EXTT13=
PLAYORDER=
